<?xml version="1.0" encoding="UTF-8"?>
<svg id="Layer_2" data-name="Layer 2" xmlns="http://www.w3.org/2000/svg" viewBox="0 0 861.48 177.48">
  <defs>
    <style>
      .cls-1 {
        fill: #00493e;
      }
    </style>
  </defs>
  <g id="Layer_1-2" data-name="Layer 1">
    <g>
      <path class="cls-1" d="M336.03,175.85h-35.77V46.42h35.77v17.98c2.37-4.04,5.55-7.52,9.7-10.67,6.49-4.91,14.14-6.76,21.43-8.02,8.06-1.38,16.26-1.21,24.4.52l1.48.31-6.15,38.86-1.86-.76c-7.49-3.06-15.2-3.89-23.58-2.55-7.54,1.2-13.76,4.82-18.48,10.75-3.76,4.71-6.11,10.85-6.85,18.27-.1,1.01-.1,4.47-.1,5.71v59.03Z"/>
      <path class="cls-1" d="M489.2,122.14c-4.57,13.1-17.04,22.53-31.68,22.53-9.72,0-18.49-4.16-24.62-10.79l89.17-38.07c-6.93-29.22-33.24-51.02-64.55-51.02-36.58,0-66.34,29.76-66.34,66.34s29.76,66.34,66.34,66.34c32.83,0,60.16-23.97,65.42-55.33h-33.75ZM457.52,77.6c7.41,0,14.26,2.42,19.81,6.5l-53.04,22.56c2.2-16.38,16.26-29.06,33.23-29.06Z"/>
      <path class="cls-1" d="M861.48,175.85h-35.83v-74.36c0-8.66-1.84-14.7-5.46-17.94-3.72-3.33-8.09-4.95-13.35-4.95-2.95,0-6.09.88-9.33,2.62-3.2,1.72-5.95,4.6-8.16,8.56-2.23,3.99-3.37,9.3-3.37,15.8v70.28h-35.84v-74.36c0-8.69-1.72-14.73-5.11-17.97-3.47-3.31-7.61-4.92-12.68-4.92-2.97,0-6.2.88-9.6,2.63-3.37,1.73-6.29,4.62-8.67,8.59-2.39,3.99-3.6,9.29-3.6,15.76v70.28h-35.83V46.42h35.83v16.51c3.58-5.01,7.71-9.07,12.33-12.13,6.02-3.99,13.01-6.01,20.77-6.01,8.81,0,16.16,2.08,21.85,6.17,4.41,3.17,8.59,8.37,12.45,15.48,3.31-5.14,8.38-11.29,15.42-15.32,7.36-4.2,15.35-6.33,23.74-6.33s16.55,2.05,23.16,6.11c6.63,4.07,11.9,10.45,15.67,18.94,3.73,8.42,5.62,19.07,5.62,31.64v74.36Z"/>
      <path class="cls-1" d="M630.09,122.14c-4.57,13.1-17.04,22.53-31.68,22.53-9.72,0-18.49-4.16-24.62-10.79l89.17-38.07c-6.93-29.22-33.24-51.02-64.55-51.02-36.58,0-66.34,29.76-66.34,66.34s29.76,66.34,66.34,66.34c32.83,0,60.16-23.97,65.42-55.33h-33.75ZM598.42,77.6c7.41,0,14.26,2.42,19.81,6.5l-53.04,22.56c2.2-16.38,16.26-29.06,33.23-29.06Z"/>
      <path class="cls-1" d="M272.1,57.97h0c-10.48-8.74-24.24-13.18-40.88-13.18-15.59,0-28.78,3.77-39.22,11.19-9.6,6.82-16.22,15.27-19.68,25.11l-.62,1.76,35.14,6.39.54-1.04c1.55-2.98,3.7-5.56,6.38-7.66,3.75-2.94,8.95-4.43,15.46-4.43,7.84,0,13.48,1.81,16.77,5.39,2.78,3.02,4.55,8.25,4.96,14.5-25.33-1.35-45.48.81-59.9,6.44-15.72,6.12-23.69,17.7-23.69,34.41,0,7.51,1.72,13.77,5.59,20.3,3.72,6.3,9.19,11.32,16.24,14.93,6.97,3.58,15.41,5.39,25.08,5.39,10.56,0,19.74-2.35,27.26-6.99,5.08-3.13,9.54-6.98,13.28-11.49v16.85h33.27v-71.69c0-21.78-5.38-37.32-16-46.19ZM245.45,132.8c-2.92,4.31-6.51,7.89-10.66,10.66-4.11,2.74-8.33,4.2-12.58,4.35-6.09.31-10.8-.67-14.01-2.91h0c-3.16-2.21-4.7-5.53-4.7-10.15,0-6.37,4.62-10.61,14.11-12.96,6.16-1.53,13.04-2.29,20.54-2.29,4.04,0,8.27.22,12.66.67-.86,4.4-2.66,8.64-5.37,12.64Z"/>
      <g>
        <circle class="cls-1" cx="46.4" cy="32.72" r="24.78"/>
        <path class="cls-1" d="M106.14,0l-10.14,38.02c14.93,1.93,27.81,10.4,35.67,22.45l30.28-25.05C148.79,17.3,129,4.3,106.14,0Z"/>
        <path class="cls-1" d="M127.71,120.68c-9.23,10.77-22.93,17.59-38.22,17.59-27.8,0-50.33-22.53-50.33-50.33,0-1.93.11-3.83.32-5.7H.19c-.12,1.88-.19,3.78-.19,5.7,0,49.42,40.07,89.49,89.49,89.49,27.19,0,51.55-12.13,67.96-31.27l-29.74-25.47Z"/>
      </g>
    </g>
  </g>
</svg>