<svg viewBox="0 0 274.5 143.89" xmlns="http://www.w3.org/2000/svg" data-name="Layer 2" id="Layer_2">
  <defs>
    <style>
      .cls-1 {
        fill: #fff;
      }
    </style>
  </defs>
  <g data-name="Layer 1" id="Layer_1-2">
    <path d="M267.26,46.62c2.64-1.14,5.05-1.72,7.24-1.72v-3.43h-25.14v3.43c3.29.22,5.77,3.07,5.55,6.36-.1,1.44-.7,2.73-1.62,3.7l-10.94,12.99-12.09-14.99c-.71-.87-.96-1.76-.96-2.97,0-2.81,2.25-5.09,5.06-5.09v-3.43h-30.51s-24.25,0-24.25,0v3.43c3.19,0,5.77,2.58,5.77,5.77,0,1.45-.54,2.78-1.42,3.79l-9.42,11.03s-10.74-13.28-10.74-13.28c-.64-.77-1.03-1.77-1.03-2.85,0-2.46,2-4.46,4.46-4.46v-3.43h-50.2v3.43c3.77,0,6.83,3.06,6.83,6.83,0,.91-.18,1.78-.5,2.57l-1.1,2.77-14.17,33.94-16.79-35.73-.96-2.05c-.32-.73-.5-1.54-.5-2.39,0-3.28,2.66-5.93,5.93-5.93v-3.43h-32.9l2.16-7.98c3.73-13.78,7.14-22.22,10.22-25.33,3.08-3.11,6.32-4.66,9.7-4.66,2.24,0,4.15,1.24,5.74,3.73,2.24,3.43,4.35,5.15,6.34,5.15,2.49,0,3.73-1.32,3.73-3.95,0-1.84-1.13-3.71-3.39-5.59-2.26-1.89-5.53-2.83-9.81-2.83-15.02,0-25.89,12.38-32.6,37.15h0c-.72,2.56-3.06,4.33-5.72,4.33h-11.82v3.28h15.3l-7.36,27.38c-5.17,19.15-9.8,31.9-13.88,38.27-4.08,6.37-9.1,9.55-15.07,9.55-1.69,0-3.13-.4-4.33-1.19-1.19-.8-1.79-1.67-1.79-2.61l.15-1.27c.15-.9.22-1.52.22-1.87,0-1.34-.5-2.6-1.49-3.77-.99-1.17-2.31-1.75-3.95-1.75-1.39,0-2.61.52-3.66,1.57-1.04,1.04-1.57,2.39-1.57,4.03,0,2.88,1.68,5.3,5.04,7.24,3.36,1.94,7.12,2.91,11.3,2.91,7.51,0,14.4-3.38,20.66-10.15,6.27-6.76,9.93-12.19,15.2-31.93l7.8-29.38c1.05-3.92,4.62-6.81,8.88-6.81,3.27,0,6.15,1.71,7.77,4.29l3,5.58,22.98,49.24-7.64,18.31s-1.51,3.13-1.51,3.13c-.71,1.47-1.7,2.8-2.91,3.9-1.2,1.1-2.61,1.96-4.12,2.56-.96.38-1.97.63-2.99.81-.85.15-1.66.28-2.43.71-1.37.75-2.4,2.07-2.76,3.6-.05.2-.08.4-.11.61-.17,1.51.27,3.04,1.25,4.2.95,1.14,2.36,1.87,3.84,1.97,1.76.12,3.61-.44,5.08-1.4,1.36-.89,2.44-2.16,3.11-3.64l4.96-11.09,31.56-75.54c1.83-4.41,6.12-7.28,10.89-7.29h0c2.37,0,4.58.72,6.41,1.95l.17.1c1.99,1.37,4.9,4.49,8.73,9.36l13.5,17.08-12.61,14.92c-4.18,4.92-7.58,7.96-10.22,9.1-2.64,1.14-5.05,1.72-7.24,1.72v3.43h25.14v-3.43c-3.29-.23-5.77-3.07-5.55-6.36.1-1.44.7-2.73,1.62-3.7l10.94-12.99,12.09,14.99c.71.87.96,1.76.96,2.97,0,2.81-2.25,5.09-5.06,5.09v3.43h30.51s24.25,0,24.25,0v-3.43c-3.19,0-5.77-2.58-5.77-5.77,0-1.45.54-2.78,1.42-3.79l9.42-11.03s10.74,13.28,10.74,13.28c.64.77,1.03,1.77,1.03,2.85,0,2.46-2,4.46-4.46,4.46v3.43h28.8l-.05-3.43c-2.66,0-4.98-.69-6.96-2.05-1.99-1.37-4.9-4.49-8.73-9.36l-13.5-17.08,12.61-14.92c4.18-4.92,7.58-7.96,10.22-9.1ZM223.39,89.96c-5.22,5.97-10.27,9.03-15.14,9.18h0c-2.74-.1-5.09-.8-7.05-2.12-1.96-1.32-4.44-3.84-7.42-7.57l-17.16-21.56,12.09-13.8c5.22-5.97,10.27-9.03,15.14-9.18h0c2.74.1,5.09.8,7.05,2.12,1.96,1.32,4.44,3.84,7.42,7.57l17.16,21.56-12.09,13.8Z" class="cls-1"></path>
  </g>
</svg>