<?xml version="1.0" encoding="UTF-8"?>
<svg id="Layer_2" data-name="Layer 2" xmlns="http://www.w3.org/2000/svg" viewBox="0 0 397.95 283.79">
  <defs>
    <style>
      .cls-1 {
        fill: #f4efe7;
      }
    </style>
  </defs>
  <g id="Layer_1-2" data-name="Layer 1">
    <g>
      <path class="cls-1" d="M342.38,72.44c-2.39-13.36-15.63-18.33-33.67-15.1-14.4,2.58-31.8,10.35-49.99,22.73-5.26,3.63-6.3,8.82-5.74,11.95.43,2.43,1.79,3.98,2.83,3.79,1.39-.25,31.52-21.93,54.58-26.06,10.58-1.89,16.72.41,17.68,5.78,2.98,16.65-34.85,41.32-70.44,54.49l18.04-27.22c.82-1.4.95-2.68.7-4.06-.65-3.64-4.06-7.69-6.84-7.19-.69.12-1.47.8-1.9,1.41-10.43,14.75-19.79,28.42-29.35,43.02-2.05.55-4.48.98-6.56,1.35-.15.05-.28.11-.42.16l-51.87,9.28c-5.03.9-9.08,8.25-8.46,11.72.22,1.21,1.65,2.21,3.73,1.84l8.5-1.52c5.72-1.02,8.55.8,9.24,4.61,1.96,10.93-13.99,26.85-30.81,29.86-8.67,1.55-15.55-1.87-17.13-10.72-1.37-7.63,1.33-19.57,10.86-36.31,13.46-22.81,44.21-58.03,67.1-62.13,6.07-1.09,9.39.47,10.04,4.11,1.09,6.07-5.22,16.86-17.41,26.74-1.72,1.38-2.09,2.34-1.99,2.86.28,1.56,3.87,1.63,8.03.89,2.95-.53,6.32-1.67,8.22-3.08,13.3-9.72,19.37-24.77,17.48-35.35-1.52-8.5-8.28-14.27-20.25-12.13-23.59,4.22-60.99,38.3-81.04,71.25-13.16,21.51-17.52,39.12-15.44,50.74,2.39,13.36,12.81,19.55,27.72,16.88,26.36-4.72,49.53-29.27,46.62-45.58-.37-2.08-1.27-4.07-2.93-5.38,6.37-1.14,19.96-3.83,27.31-5.56-8.7,13.48-18.06,27.89-28.9,44.06-.97,1.61-1.21,3.26-.93,4.82.78,4.34,4.36,8.35,6.96,7.88.52-.09.98-.53,1.41-1.15,18.84-27.72,28.83-42.93,40.72-61.53,5.44-.62,9.83.92,10.86,6.65.37,2.08-.03,4.84-.51,8.15-2.49,12.08-3.05,20.95-2.03,26.67,1.43,7.98,6.04,10.73,14.54,9.21,7.98-1.43,16.18-5.58,21.15-9.87,1.72-1.38,2.3-4.17,1.86-6.6-.4-2.26-1.85-4.32-3.41-4.04-1.39.25-8.06,6.99-15.17,8.26-3.3.59-4.68-1.13-5.14-3.73-.47-2.6-.19-6.05.23-9.71.97-8.59,1.1-14.87.23-19.73-1.33-7.46-4.9-10.4-10.23-10.16,51.4-18.87,85.07-49.77,81.93-67.29Z"/>
      <path class="cls-1" d="M209.52,63.52c13.53-2.42,23.85-3.73,25.24-3.98,3.99-.71,12.87-11.08,12.13-15.24-.16-.87-.94-1.26-1.64-1.14-8.42.97-17.47,2.41-26.66,4.06-8.32,1.49-16.79,3.19-25.23,5.05.19-.93.38-1.86.26-2.55-.59-3.3-3.61-6.16-6.04-5.72-.52.09-.84.33-1.29.77l-9.05,11.46c-25.12,6.64-50.52,14.77-72.23,23.49-10.84,4.45-24.41,12.6-23.51,17.63.68,3.82,4.35,7.28,10.42,6.19,5.9-1.06,12.34-5.07,14.2-9.7,17.75-7.83,37.69-14.44,57.29-19.92-50.2,65.55-61.04,83.08-95.43,140.97-1.19,2.36-1.39,5.26-.98,7.51.87,4.86,3.93,8.96,6.36,8.53.52-.09,1.33-.6,1.72-1.38,41.72-69.94,54.82-91.81,105.81-160.01,9.79-2.29,19.27-4.34,28.64-6.02Z"/>
      <path class="cls-1" d="M396.41,106.55C382.85,30.79,283.25-15,174.38,4.49,65.51,23.97-12.02,101.47,1.54,177.23c13.56,75.77,113.16,121.55,222.03,102.07,108.87-19.49,186.4-96.98,172.84-172.75ZM220.07,259.77c-103.73,18.57-197.59-19.21-209.22-84.2C-.78,110.57,74.15,42.58,177.88,24.02c103.73-18.57,197.59,19.21,209.22,84.2,11.63,65-63.29,132.98-167.03,151.55Z"/>
      <path class="cls-1" d="M52.45,180.29c-.03-.15-.07-.28-.13-.4-.06-.12-.14-.23-.22-.31-.09-.08-.18-.15-.28-.18-.1-.04-.21-.05-.31-.03l-4.85.87c.17-.14.42-.33.74-.57.32-.24.67-.52,1.04-.84.37-.32.75-.67,1.12-1.04.38-.38.71-.77,1-1.19.29-.41.51-.84.66-1.28.15-.44.19-.87.11-1.3l-.1-.54c-.06-.31-.15-.63-.3-.96-.14-.33-.33-.65-.56-.97-.23-.31-.49-.6-.8-.87-.31-.27-.66-.5-1.04-.68-.39-.18-.81-.3-1.27-.37-.46-.07-.95-.05-1.48.04l-4.71.84c-.37.07-.76.2-1.15.38-.4.19-.77.42-1.14.7-.36.27-.7.59-1.01.94-.31.35-.57.72-.78,1.12-.21.39-.36.8-.46,1.22-.09.42-.1.84-.03,1.26l.1.54c.03.15.07.28.13.4.06.12.13.22.21.3.08.08.17.14.27.18.1.04.2.05.31.03l4.27-.76c.06-.22.15-.42.26-.61.1-.16.23-.31.39-.45.16-.15.36-.24.62-.29l1.87-.34c.09-.02.18,0,.27.04.09.04.17.1.24.17.07.07.14.16.19.26.05.1.09.19.1.29s0,.2-.02.32c-.03.12-.08.25-.15.39-.07.14-.16.27-.28.41-.11.13-.24.26-.38.37-.21.17-.47.35-.78.57-.31.21-.64.44-1.01.68-.36.24-.74.48-1.13.73-.39.25-.78.49-1.15.72-.89.55-1.82,1.13-2.81,1.72-.09.05-.18.13-.25.23-.08.1-.14.21-.19.33-.05.12-.08.26-.1.4-.02.14-.02.29.01.44l.43,2.4c.03.15.07.28.13.4.06.12.14.22.22.31.09.08.18.15.28.18.1.04.21.05.31.03l13.47-2.41c.1-.02.2-.06.28-.14.08-.07.15-.16.2-.27.05-.11.09-.23.1-.36.02-.14.01-.28-.02-.43l-.47-2.6Z"/>
      <path class="cls-1" d="M67.61,177.13c.08-.88.03-1.79-.13-2.71l-.19-1.04c-.24-1.35-.62-2.48-1.12-3.37-.51-.89-1.09-1.59-1.76-2.09-.67-.5-1.39-.83-2.16-.98-.77-.15-1.55-.16-2.32-.02l-2.64.47c-.76.14-1.44.43-2.04.88-.6.45-1.09,1.04-1.47,1.76-.38.72-.63,1.56-.75,2.52-.12.96-.08,2,.12,3.13l.23,1.26c.14.79.34,1.5.61,2.13.26.63.56,1.18.91,1.65.35.47.72.87,1.14,1.18.41.31.84.56,1.28.75.44.18.88.3,1.33.34.45.05.89.03,1.31-.04l3.17-.57c.95-.17,1.74-.51,2.38-1.01.64-.51,1.13-1.12,1.48-1.84.35-.72.56-1.52.64-2.4ZM62.59,176.03c-.05.37-.15.69-.31.98-.16.29-.35.53-.59.73-.24.19-.51.32-.81.37-.3.05-.6.03-.89-.07-.3-.1-.56-.26-.81-.48-.24-.22-.45-.49-.63-.82s-.3-.68-.37-1.08c-.07-.39-.08-.77-.02-1.14.06-.36.16-.69.31-.97.15-.29.35-.53.59-.72.24-.2.51-.32.81-.37.3-.05.6-.03.89.07.29.1.56.26.81.48.24.22.45.49.63.81.18.32.3.68.37,1.07.07.39.08.77.03,1.14Z"/>
      <path class="cls-1" d="M348.24,127.35c-.03-.15-.07-.28-.13-.4-.06-.12-.14-.22-.22-.31-.09-.08-.18-.14-.28-.18-.1-.04-.2-.05-.31-.03l-4.85.87c.17-.14.42-.33.74-.57.32-.24.67-.52,1.04-.84.37-.32.75-.67,1.12-1.04.38-.38.71-.77,1-1.19.29-.41.51-.84.66-1.28.15-.44.19-.87.11-1.3l-.1-.54c-.06-.31-.15-.63-.3-.96-.14-.33-.33-.65-.56-.97-.23-.31-.49-.6-.8-.87-.31-.27-.66-.5-1.04-.68-.39-.18-.81-.3-1.27-.37-.46-.07-.95-.05-1.47.04l-4.71.84c-.37.07-.76.2-1.15.38-.4.19-.77.42-1.14.7-.36.27-.7.59-1.01.94-.31.35-.57.72-.78,1.12-.21.39-.36.8-.46,1.22-.09.42-.1.84-.03,1.26l.1.54c.03.15.07.28.13.4.06.12.13.22.21.3.08.08.17.14.27.18.1.04.2.05.31.03l4.27-.76c.06-.22.15-.42.26-.61.1-.16.23-.31.39-.45.16-.15.36-.24.62-.29l1.87-.34c.09-.02.18,0,.27.04s.17.1.24.17c.07.07.14.16.19.26.05.1.09.19.1.29.02.09,0,.2-.02.32-.03.12-.08.26-.15.39-.07.14-.16.27-.28.41-.11.13-.24.26-.38.37-.21.17-.47.35-.78.57-.31.21-.64.44-1.01.68-.36.24-.74.48-1.13.73-.39.25-.78.49-1.15.72-.89.55-1.82,1.13-2.81,1.72-.09.05-.18.13-.25.23-.08.1-.14.21-.19.33s-.08.26-.1.4-.01.29.01.44l.43,2.4c.03.15.07.28.13.41.06.12.14.22.22.31.09.08.18.14.28.18.1.04.2.05.31.03l13.47-2.41c.11-.02.2-.06.28-.14s.15-.16.2-.27c.05-.11.09-.23.1-.37.02-.14.01-.28-.02-.43l-.47-2.6Z"/>
      <path class="cls-1" d="M364.71,124.4c-.03-.15-.07-.28-.13-.4-.06-.12-.14-.22-.22-.31-.09-.08-.18-.14-.28-.18-.1-.04-.21-.05-.31-.03l-4.85.87c.17-.14.42-.33.74-.57.32-.24.67-.52,1.04-.84.37-.32.75-.67,1.12-1.04.38-.38.71-.77,1-1.19.29-.41.51-.84.66-1.27.15-.44.19-.87.11-1.3l-.1-.54c-.06-.31-.15-.63-.3-.96-.14-.33-.33-.65-.56-.97-.23-.31-.49-.6-.8-.87-.31-.27-.66-.5-1.04-.68-.39-.18-.81-.3-1.27-.37-.46-.07-.95-.05-1.47.04l-4.71.84c-.37.07-.76.2-1.15.38-.4.19-.77.42-1.14.7-.36.27-.7.59-1.01.94-.31.35-.57.72-.78,1.12-.21.39-.36.8-.46,1.22-.09.42-.1.84-.03,1.26l.1.54c.03.15.07.28.13.4.06.12.13.22.21.3.08.08.17.14.27.18.1.04.2.05.31.03l4.27-.77c.06-.22.15-.42.26-.61.1-.16.23-.31.39-.45.16-.15.36-.24.62-.29l1.87-.33c.09-.02.18,0,.27.04s.17.1.24.17c.07.07.14.16.19.26.05.1.09.19.1.29.02.09,0,.2-.02.32-.03.12-.08.25-.15.39-.07.14-.16.27-.28.41-.11.13-.24.26-.38.37-.21.17-.47.35-.78.57-.31.21-.64.44-1.01.68-.36.24-.74.48-1.13.73-.39.25-.78.49-1.15.72-.89.55-1.82,1.13-2.81,1.72-.09.05-.18.13-.25.23-.08.1-.14.21-.19.33-.05.12-.08.26-.1.4-.02.14-.02.29.01.44l.43,2.4c.03.15.07.28.13.41.06.12.14.22.22.31.09.08.18.14.28.18.1.04.2.05.31.03l13.47-2.41c.1-.02.2-.06.28-.14.08-.07.15-.16.2-.27.05-.11.09-.23.1-.37.02-.14.01-.28-.02-.43l-.47-2.6Z"/>
    </g>
  </g>
</svg>