<?xml version="1.0" encoding="UTF-8"?>
<svg id="Layer_2" data-name="Layer 2" xmlns="http://www.w3.org/2000/svg" viewBox="0 0 440.44 169.39">
  <defs>
    <style>
      .cls-1 {
        fill: #092727;
      }
    </style>
  </defs>
  <g id="Layer_1-2" data-name="Layer 1">
    <g>
      <path class="cls-1" d="M43.46,102.02c0,.41-.06.79-.17,1.14-.11.36-.26.67-.45.93s-.41.47-.66.62c-.25.15-.53.23-.81.23h-5.47c-.19,0-.36-.06-.51-.16-.15-.11-.3-.25-.43-.42-.14-.17-.27-.36-.39-.57s-.26-.42-.39-.62l-2.09-3.18c-.46,1.03-1.14,1.96-2.04,2.77-.39.36-.84.7-1.35,1.03-.51.33-1.1.62-1.77.88-.67.25-1.42.46-2.27.62-.84.16-1.77.24-2.79.24h-7.02c-.78,0-1.69-.15-2.74-.46-1.04-.31-2.12-.78-3.22-1.44-1.1-.65-2.18-1.5-3.24-2.53-1.06-1.03-2.01-2.29-2.85-3.75-.84-1.47-1.52-3.16-2.04-5.08-.52-1.92-.78-4.09-.78-6.51v-1.86c0-2.53.23-4.81.67-6.84.45-2.03,1.07-3.84,1.87-5.42s1.74-2.93,2.84-4.06c1.09-1.13,2.29-2.06,3.59-2.79,1.3-.73,2.67-1.26,4.12-1.6,1.45-.34,2.92-.51,4.41-.51h10.79c1.46,0,2.81.28,4.06.84,1.25.56,2.38,1.29,3.4,2.2,1.02.91,1.91,1.94,2.68,3.09.77,1.15,1.42,2.32,1.96,3.5.53,1.18.94,2.32,1.21,3.43.27,1.11.41,2.07.41,2.89,0,.14-.02.29-.05.46-.03.17-.09.33-.18.48-.08.15-.2.28-.33.39-.14.11-.3.16-.48.16h-8.88c-.51.02-.95-.05-1.31-.22-.37-.16-.66-.35-.89-.57s-.41-.44-.53-.66c-.13-.22-.22-.38-.27-.48-.08-.14-.22-.4-.39-.79-.18-.39-.5-.79-.95-1.21-.46-.41-1.1-.78-1.92-1.11-.82-.32-1.92-.48-3.29-.48s-2.5.27-3.49.8c-.98.54-1.79,1.23-2.43,2.1-.64.86-1.11,1.84-1.41,2.93-.31,1.09-.46,2.18-.46,3.28,0,.9.11,1.88.32,2.95.21,1.07.58,2.06,1.11,2.98.53.92,1.24,1.68,2.15,2.29.91.61,2.05.92,3.42.92h4.38c.27,0,.53-.11.78-.33.25-.22.46-.5.65-.84.19-.34.33-.72.45-1.13.11-.41.17-.83.17-1.23v-.48h-5.67c-.27,0-.53-.08-.78-.23s-.46-.36-.65-.62-.33-.57-.45-.93c-.11-.36-.16-.74-.16-1.14v-1.76h20.94c.29,0,.56.08.81.23.25.15.47.36.66.62s.33.57.45.93c.11.36.17.74.17,1.15v14.93Z"/>
      <path class="cls-1" d="M142.54,102.02c0,.41-.06.79-.16,1.14-.11.36-.26.67-.45.93s-.41.47-.66.62c-.25.15-.53.23-.81.23h-11.45c-.29,0-.56-.08-.81-.23-.25-.15-.47-.36-.66-.62s-.33-.57-.45-.93c-.11-.36-.16-.74-.16-1.14v-5.72c0-.93-.1-1.92-.29-2.95-.19-1.03-.52-1.98-.98-2.85-.46-.86-1.06-1.58-1.82-2.15-.76-.57-1.7-.85-2.84-.85h-7.68v14.53c0,.41-.06.79-.17,1.14-.11.36-.25.67-.43.93-.18.26-.39.47-.64.62s-.5.23-.78.23h-9.54c-.29,0-.56-.08-.81-.23-.25-.15-.47-.36-.66-.62s-.34-.57-.45-.93c-.11-.36-.17-.74-.17-1.14v-35.85c0-.41.06-.78.17-1.13.11-.35.26-.65.45-.92.19-.26.41-.47.66-.62.25-.15.53-.23.81-.23h29.9c1.32,0,2.61.3,3.85.89,1.25.59,2.35,1.42,3.31,2.49.96,1.07,1.73,2.35,2.3,3.85.58,1.5.86,3.17.86,5v.99c0,1.09-.11,2.08-.32,2.99-.21.91-.5,1.74-.85,2.49-.36.75-.78,1.42-1.27,2.01-.49.59-1.02,1.09-1.58,1.51.42.36.9.87,1.42,1.53.53.66,1.02,1.54,1.49,2.65.47,1.1.86,2.46,1.18,4.06.32,1.6.48,3.52.48,5.74v2.54ZM127.12,78.69c0-.32-.05-.63-.15-.92s-.25-.54-.43-.76-.4-.39-.65-.52-.51-.19-.8-.19h-11.78v4.73h11.78c.29,0,.56-.06.8-.18s.46-.28.65-.5c.19-.21.33-.46.43-.75.1-.29.15-.59.15-.92Z"/>
      <path class="cls-1" d="M239.7,102.02c0,.41-.06.79-.17,1.14-.11.36-.26.67-.45.93s-.41.47-.66.62c-.25.15-.53.23-.81.23h-34.27c-.29,0-.56-.08-.81-.23-.25-.15-.47-.36-.66-.62s-.34-.57-.45-.93c-.11-.36-.17-.74-.17-1.14v-35.85c0-.41.06-.78.17-1.13.11-.35.26-.65.45-.92.19-.26.41-.47.66-.62.25-.15.53-.23.81-.23h34.27c.29,0,.56.08.81.23.25.15.47.36.66.62.19.26.33.57.45.92s.17.73.17,1.13v6.11c0,.41-.06.78-.17,1.13s-.26.66-.45.93c-.19.27-.41.48-.66.64-.25.15-.53.23-.81.23h-21.78v4.48h15.37c.29,0,.56.08.81.23.25.15.47.36.65.62.18.26.32.57.42.92.1.35.15.73.15,1.13v2.37c0,.41-.05.78-.15,1.13s-.24.65-.42.92c-.18.26-.39.47-.65.62-.25.15-.53.23-.81.23h-15.77v4.71h22.19c.29,0,.56.08.81.23.25.15.47.36.66.62.19.26.33.57.45.92s.17.72.17,1.13v6.56Z"/>
      <path class="cls-1" d="M339.08,102.02c0,.41-.06.79-.17,1.14-.11.36-.26.67-.45.93s-.41.47-.66.62c-.25.15-.53.23-.81.23h-34.27c-.29,0-.56-.08-.81-.23-.25-.15-.47-.36-.66-.62s-.34-.57-.45-.93c-.11-.36-.17-.74-.17-1.14v-35.85c0-.41.06-.78.17-1.13.11-.35.26-.65.45-.92.19-.26.41-.47.66-.62.25-.15.53-.23.81-.23h34.27c.29,0,.56.08.81.23.25.15.47.36.66.62.19.26.33.57.45.92s.17.73.17,1.13v6.11c0,.41-.06.78-.17,1.13s-.26.66-.45.93c-.19.27-.41.48-.66.64-.25.15-.53.23-.81.23h-21.78v4.48h15.37c.29,0,.56.08.81.23.25.15.47.36.65.62.18.26.32.57.42.92.1.35.15.73.15,1.13v2.37c0,.41-.05.78-.15,1.13s-.24.65-.42.92c-.18.26-.39.47-.65.62-.25.15-.53.23-.81.23h-15.77v4.71h22.19c.29,0,.56.08.81.23.25.15.47.36.66.62.19.26.33.57.45.92s.17.72.17,1.13v6.56Z"/>
      <path class="cls-1" d="M440.44,102.02c0,.41-.06.79-.16,1.14-.11.36-.26.67-.45.93s-.4.47-.65.62-.5.23-.78.23h-15.32c-.29,0-.55-.09-.78-.27-.23-.18-.44-.41-.62-.7s-.36-.6-.53-.94c-.17-.34-.34-.68-.51-1.02l-10.84-21.45v21.45c0,.41-.06.79-.17,1.14-.11.36-.26.67-.45.93s-.41.47-.66.62c-.25.15-.53.23-.81.23h-7.61c-.29,0-.56-.08-.81-.23-.25-.15-.47-.36-.66-.62s-.34-.57-.45-.93c-.11-.36-.17-.74-.17-1.14v-35.85c0-.41.06-.78.17-1.13.11-.35.26-.65.45-.92.19-.26.41-.47.66-.62.25-.15.53-.23.81-.23h16.41c.29,0,.55.09.78.28.23.19.44.42.62.7.19.28.36.59.53.94.17.35.34.67.51.98l9.74,17.35v-17.35c0-.41.05-.78.15-1.13s.25-.65.43-.92c.19-.26.4-.47.65-.62.25-.15.51-.23.8-.23h7.66c.27,0,.53.08.78.23.25.15.46.36.65.62.19.26.33.57.45.92.11.35.16.73.16,1.13v35.85Z"/>
      <path class="cls-1" d="M90.24,165.87c0,.41-.06.79-.16,1.14-.11.36-.26.67-.45.93-.19.26-.41.47-.66.62-.25.15-.53.23-.81.23h-11.45c-.29,0-.56-.08-.81-.23s-.47-.36-.66-.62c-.19-.26-.33-.57-.45-.93-.11-.36-.16-.74-.16-1.14v-5.72c0-.93-.1-1.92-.29-2.95-.19-1.03-.52-1.98-.98-2.85-.46-.86-1.06-1.58-1.82-2.15-.76-.57-1.7-.85-2.84-.85h-7.68v14.53c0,.41-.06.79-.17,1.14-.11.36-.25.67-.43.93-.18.26-.39.47-.64.62s-.5.23-.78.23h-9.54c-.29,0-.56-.08-.81-.23-.25-.15-.47-.36-.66-.62s-.34-.57-.45-.93c-.11-.36-.17-.74-.17-1.14v-35.85c0-.41.06-.78.17-1.13.11-.35.26-.65.45-.92.19-.26.41-.47.66-.62.25-.15.53-.23.81-.23h29.9c1.32,0,2.61.3,3.85.89,1.25.59,2.35,1.42,3.31,2.49.96,1.07,1.73,2.35,2.3,3.85.58,1.5.86,3.17.86,5v.99c0,1.09-.11,2.08-.32,2.99-.21.91-.5,1.74-.85,2.49-.36.75-.78,1.42-1.27,2.01-.49.59-1.02,1.09-1.58,1.51.42.36.9.87,1.42,1.53.53.66,1.02,1.54,1.49,2.65.47,1.1.86,2.46,1.18,4.06.32,1.6.48,3.52.48,5.74v2.54ZM74.82,142.54c0-.32-.05-.63-.15-.92-.1-.29-.25-.54-.43-.76s-.4-.39-.65-.52-.51-.19-.8-.19h-11.78v4.73h11.78c.29,0,.56-.06.8-.18s.46-.28.65-.5c.19-.21.33-.46.43-.75.1-.29.15-.59.15-.92Z"/>
      <path class="cls-1" d="M187.67,150.2c0,1.7-.14,3.35-.42,4.96-.28,1.61-.7,3.13-1.27,4.54-.57,1.42-1.28,2.72-2.12,3.91-.85,1.19-1.84,2.21-2.99,3.07-1.15.86-2.44,1.52-3.88,2-1.44.47-3.03.71-4.76.71h-8.75c-1.19,0-2.37-.17-3.55-.51-1.18-.34-2.31-.86-3.4-1.55-1.09-.7-2.1-1.56-3.04-2.61-.94-1.04-1.76-2.28-2.45-3.7-.7-1.42-1.24-3.04-1.64-4.83-.4-1.8-.6-3.79-.6-5.98v-3.49c0-3.12.39-5.93,1.17-8.42.78-2.49,1.84-4.61,3.19-6.36,1.35-1.75,2.93-3.08,4.76-4.01,1.82-.92,3.77-1.39,5.84-1.39h7.28c2.14,0,4.21.39,6.21,1.16,2,.77,3.77,1.99,5.32,3.65,1.54,1.66,2.78,3.81,3.71,6.44.93,2.63,1.4,5.81,1.4,9.54v2.88ZM174.31,149.11c0-1.09-.16-2.1-.47-3.04-.31-.94-.75-1.76-1.3-2.45-.55-.7-1.19-1.25-1.92-1.65-.73-.41-1.51-.61-2.34-.61s-1.64.2-2.38.61c-.74.41-1.38.96-1.93,1.65-.55.7-.99,1.51-1.31,2.45-.32.94-.48,1.96-.48,3.04s.16,2.1.48,3.05c.32.95.76,1.78,1.31,2.48.55.7,1.2,1.26,1.93,1.67.74.41,1.53.61,2.38.61s1.61-.2,2.34-.61c.73-.41,1.37-.96,1.92-1.67.55-.7.98-1.53,1.3-2.48.31-.95.47-1.97.47-3.05Z"/>
      <path class="cls-1" d="M287.09,150.2c0,1.7-.14,3.35-.42,4.96-.28,1.61-.7,3.13-1.27,4.54-.57,1.42-1.28,2.72-2.12,3.91-.85,1.19-1.84,2.21-2.99,3.07-1.15.86-2.44,1.52-3.88,2-1.44.47-3.03.71-4.76.71h-8.75c-1.19,0-2.37-.17-3.55-.51-1.18-.34-2.31-.86-3.4-1.55-1.09-.7-2.1-1.56-3.04-2.61-.94-1.04-1.76-2.28-2.45-3.7-.7-1.42-1.24-3.04-1.64-4.83-.4-1.8-.6-3.79-.6-5.98v-3.49c0-3.12.39-5.93,1.17-8.42.78-2.49,1.84-4.61,3.19-6.36,1.35-1.75,2.93-3.08,4.76-4.01,1.82-.92,3.77-1.39,5.84-1.39h7.28c2.14,0,4.21.39,6.21,1.16,2,.77,3.77,1.99,5.32,3.65s2.78,3.81,3.71,6.44,1.4,5.81,1.4,9.54v2.88ZM273.73,149.11c0-1.09-.16-2.1-.47-3.04-.31-.94-.75-1.76-1.3-2.45-.55-.7-1.19-1.25-1.92-1.65-.73-.41-1.51-.61-2.34-.61s-1.64.2-2.38.61c-.74.41-1.38.96-1.93,1.65-.55.7-.99,1.51-1.31,2.45-.32.94-.48,1.96-.48,3.04s.16,2.1.48,3.05c.32.95.76,1.78,1.31,2.48.55.7,1.2,1.26,1.93,1.67.74.41,1.53.61,2.38.61s1.61-.2,2.34-.61c.73-.41,1.37-.96,1.92-1.67.55-.7.98-1.53,1.3-2.48.31-.95.47-1.97.47-3.05Z"/>
      <path class="cls-1" d="M393.07,165.87c0,.41-.06.79-.17,1.14-.11.36-.26.67-.45.93s-.41.47-.66.62-.53.23-.82.23h-9.36c-.27,0-.53-.08-.78-.23-.25-.15-.46-.36-.65-.62-.19-.26-.34-.57-.45-.93-.11-.36-.17-.74-.17-1.14v-16.03c0-.54-.08-.88-.25-1.01-.17-.13-.32-.02-.46.32l-6.79,16.72c-.14.36-.26.71-.37,1.06s-.24.66-.39.94c-.15.28-.33.51-.52.67-.2.17-.44.25-.72.25h-9.23c-.27,0-.51-.08-.71-.25-.2-.17-.38-.39-.53-.66-.15-.27-.29-.58-.42-.93-.13-.35-.25-.71-.37-1.08l-4.98-16.72c-.1-.36-.22-.61-.34-.78-.13-.16-.24-.24-.34-.24s-.19.06-.25.18c-.07.12-.1.28-.1.48v17.07c0,.41-.06.79-.16,1.14-.11.36-.26.67-.45.93s-.4.47-.65.62-.5.23-.78.23h-7.61c-.29,0-.56-.08-.81-.23-.25-.15-.47-.36-.66-.62-.19-.26-.34-.57-.45-.93-.11-.36-.17-.74-.17-1.14v-35.85c0-.41.06-.78.17-1.13.11-.35.26-.65.45-.92.19-.26.41-.47.66-.62.25-.15.53-.23.81-.23h18.5c.27,0,.51.08.71.24.2.16.39.38.55.65.16.27.31.58.43.93s.24.71.34,1.08l2.7,9.39c.07.2.14.39.2.56.07.14.14.26.23.37s.19.16.31.16c.08,0,.16-.05.23-.16.07-.11.14-.23.2-.37.07-.17.14-.36.23-.56l2.42-9.39c.08-.37.19-.73.31-1.08.12-.35.26-.66.42-.93.16-.27.35-.49.56-.65.21-.16.46-.24.75-.24h18.75c.29,0,.56.08.81.23.25.15.47.36.66.62.19.26.33.57.45.92s.17.73.17,1.13v35.85Z"/>
      <path class="cls-1" d="M140.54,8.52c0,.41-.05.79-.15,1.14-.1.36-.25.67-.43.93-.19.26-.4.47-.65.62-.24.15-.51.23-.8.23h-10.1v27.3c0,.41-.05.79-.15,1.14-.1.36-.25.67-.43.93-.19.26-.4.47-.65.62-.25.15-.52.23-.8.23h-9.41c-.27,0-.53-.08-.78-.23s-.46-.36-.65-.62-.34-.57-.45-.93c-.11-.36-.17-.74-.17-1.14V11.45h-10.05c-.29,0-.55-.08-.8-.23-.24-.15-.46-.36-.65-.62-.19-.26-.33-.57-.43-.93-.1-.36-.15-.74-.15-1.14V2.9c0-.41.05-.78.15-1.13.1-.35.24-.65.43-.92.19-.26.4-.47.65-.62.25-.15.51-.23.8-.23h33.64c.29,0,.55.08.8.23.25.15.46.36.65.62.19.26.33.57.43.92.1.35.15.73.15,1.13v5.62Z"/>
      <path class="cls-1" d="M240.9,38.75c0,.41-.05.79-.15,1.14-.1.36-.24.67-.42.93-.18.26-.39.47-.65.62s-.53.23-.81.23h-10c-.27,0-.53-.08-.77-.23-.25-.15-.46-.36-.65-.62-.19-.26-.34-.57-.44-.93-.11-.36-.17-.74-.17-1.14v-12.49h-13.59v12.49c0,.41-.05.79-.15,1.14-.1.36-.24.67-.43.93-.19.26-.4.47-.65.62-.25.15-.51.23-.8.23h-9.95c-.29,0-.56-.08-.81-.23s-.47-.36-.66-.62c-.19-.26-.34-.57-.44-.93-.11-.36-.17-.74-.17-1.14V2.9c0-.41.06-.78.17-1.13.11-.35.26-.65.44-.92.19-.26.41-.47.66-.62.25-.15.53-.23.81-.23h9.95c.29,0,.55.08.8.23.24.15.46.36.65.62.19.26.33.57.43.92.1.35.15.73.15,1.13v13.82h13.59V2.9c0-.41.06-.78.17-1.13.11-.35.26-.65.44-.92.19-.26.4-.47.65-.62.24-.15.5-.23.77-.23h10c.29,0,.56.08.81.23.25.15.47.36.65.62.18.26.32.57.42.92.1.35.15.73.15,1.13v35.85Z"/>
      <path class="cls-1" d="M337.61,38.75c0,.41-.06.79-.17,1.14-.11.36-.26.67-.44.93-.19.26-.41.47-.66.62s-.53.23-.81.23h-34.27c-.29,0-.56-.08-.81-.23-.25-.15-.48-.36-.66-.62-.19-.26-.34-.57-.45-.93-.11-.36-.17-.74-.17-1.14V2.9c0-.41.06-.78.17-1.13.11-.35.26-.65.45-.92.19-.26.41-.47.66-.62.25-.15.53-.23.81-.23h34.27c.29,0,.56.08.81.23.25.15.47.36.66.62.19.26.33.57.44.92s.17.73.17,1.13v6.11c0,.41-.06.78-.17,1.13s-.26.66-.44.93c-.19.27-.41.48-.66.64-.25.15-.53.23-.81.23h-21.78v4.48h15.37c.29,0,.56.08.81.23.25.15.47.36.65.62.18.26.32.57.42.92.1.35.15.73.15,1.13v2.37c0,.41-.05.78-.15,1.13-.1.35-.24.65-.42.92-.18.26-.39.47-.65.62-.25.15-.53.23-.81.23h-15.77v4.71h22.19c.29,0,.56.08.81.23.25.15.47.36.66.62.19.26.33.57.44.92.11.35.17.72.17,1.13v6.56Z"/>
    </g>
  </g>
</svg>